<?xml version="1.0" encoding="UTF-8" standalone="no"?>
<!-- Created with Inkscape (http://www.inkscape.org/) -->

<svg
   xmlns:dc="http://purl.org/dc/elements/1.1/"
   xmlns:cc="http://creativecommons.org/ns#"
   xmlns:rdf="http://www.w3.org/1999/02/22-rdf-syntax-ns#"
   xmlns:svg="http://www.w3.org/2000/svg"
   xmlns="http://www.w3.org/2000/svg"
   xmlns:sodipodi="http://sodipodi.sourceforge.net/DTD/sodipodi-0.dtd"
   xmlns:inkscape="http://www.inkscape.org/namespaces/inkscape"
   width="534mm"
   height="109mm"
   viewBox="0 0 1892.1243 386.22025"
   id="svg2"
   version="1.1"
   inkscape:version="0.91 r13725"
   sodipodi:docname="moon2.svg">
  <defs
     id="defs4" />
  <sodipodi:namedview
     id="base"
     pagecolor="#ffffff"
     bordercolor="#666666"
     borderopacity="1.0"
     inkscape:pageopacity="0"
     inkscape:pageshadow="2"
     inkscape:zoom="0.12374369"
     inkscape:cx="956.92084"
     inkscape:cy="-195.39612"
     inkscape:document-units="px"
     inkscape:current-layer="layer1"
     showgrid="false"
     width="298mm"
     inkscape:window-width="1280"
     inkscape:window-height="751"
     inkscape:window-x="0"
     inkscape:window-y="1"
     inkscape:window-maximized="1" />
  <metadata
     id="metadata7">
    <rdf:RDF>
      <cc:Work
         rdf:about="">
        <dc:format>image/svg+xml</dc:format>
        <dc:type
           rdf:resource="http://purl.org/dc/dcmitype/StillImage" />
        <dc:title></dc:title>
      </cc:Work>
    </rdf:RDF>
  </metadata>
  <g
     inkscape:label="Layer 1"
     inkscape:groupmode="layer"
     id="layer1"
     transform="translate(0,-666.14184)">
    <path
       style="opacity:1;fill:#91e8ff;fill-opacity:1;stroke:#7dccd6;stroke-width:2;stroke-miterlimit:4;stroke-dasharray:none;stroke-opacity:0"
       d="M 1724.2852,750.9336 A 112.85714,112.85714 0 0 0 1611.4277,863.79102 112.85714,112.85714 0 0 1 1715.5449,751.3711 l 0,0 a 95.792664,112.93552 0 0 1 87.3867,112.41992 95.792664,112.93552 0 0 1 -87.4004,112.41797 112.85714,112.85714 0 0 0 8.752,0.43945 112.85714,112.85714 0 0 0 9.623,-0.48242 112.85714,112.85714 0 0 0 5.584,-0.67774 112.85714,112.85714 0 0 0 5.584,-0.84375 112.85714,112.85714 0 0 0 5.498,-1.23437 112.85714,112.85714 0 0 0 5.4649,-1.39453 112.85714,112.85714 0 0 0 1.0058,-0.33399 112.85714,112.85714 0 0 0 4.3223,-1.4375 112.85714,112.85714 0 0 0 5.3379,-1.94726 112.85714,112.85714 0 0 0 5.0664,-2.26758 112.85714,112.85714 0 0 0 5.1562,-2.49024 112.85714,112.85714 0 0 0 1.6582,-0.95117 112.85714,112.85714 0 0 0 3.1641,-1.8164 112.85714,112.85714 0 0 0 4.8711,-2.98633 112.85714,112.85714 0 0 0 1.4707,-1.05078 112.85714,112.85714 0 0 0 7.6016,-5.64063 112.85714,112.85714 0 0 0 4.1953,-3.68555 112.85714,112.85714 0 0 0 4.1504,-3.86718 112.85714,112.85714 0 0 0 2.6894,-2.88672 112.85714,112.85714 0 0 0 4.8789,-5.48047 112.85714,112.85714 0 0 0 3.3887,-4.45703 112.85714,112.85714 0 0 0 3.3027,-4.61914 112.85714,112.85714 0 0 0 1.6953,-2.76367 112.85714,112.85714 0 0 0 4.0567,-6.93555 112.85714,112.85714 0 0 0 8.459,-20.85352 112.85714,112.85714 0 0 0 0.7148,-2.80468 112.85714,112.85714 0 0 0 0.6777,-2.65039 112.85714,112.85714 0 0 0 1.2364,-5.51172 112.85714,112.85714 0 0 0 0.8418,-5.56641 112.85714,112.85714 0 0 0 0.6797,-5.60156 112.85714,112.85714 0 0 0 0.4824,-9.61914 112.85714,112.85714 0 0 0 -0.4824,-9.6211 112.85714,112.85714 0 0 0 -0.6797,-5.5957 112.85714,112.85714 0 0 0 -0.8418,-5.57031 112.85714,112.85714 0 0 0 -1.2364,-5.51172 112.85714,112.85714 0 0 0 -1.3925,-5.45508 112.85714,112.85714 0 0 0 -0.6739,-2.02734 112.85714,112.85714 0 0 0 -1.0996,-3.3086 112.85714,112.85714 0 0 0 -1.9433,-5.32226 112.85714,112.85714 0 0 0 -0.3223,-0.72071 112.85714,112.85714 0 0 0 -7.2227,-14.36328 112.85714,112.85714 0 0 0 -9.6621,-13.91406 112.85714,112.85714 0 0 0 -3.6718,-4.17969 112.85714,112.85714 0 0 0 -3.8907,-4.17578 112.85714,112.85714 0 0 0 -4.08,-3.80078 112.85714,112.85714 0 0 0 -4.2774,-3.75781 112.85714,112.85714 0 0 0 -0.8828,-0.66992 112.85714,112.85714 0 0 0 -8.1758,-6.00977 112.85714,112.85714 0 0 0 -4.8262,-2.95898 112.85714,112.85714 0 0 0 -25.7421,-11.26172 112.85714,112.85714 0 0 0 -5.4551,-1.39258 112.85714,112.85714 0 0 0 -5.5117,-1.23633 112.85714,112.85714 0 0 0 -5.5391,-0.83789 112.85714,112.85714 0 0 0 -5.6289,-0.68359 112.85714,112.85714 0 0 0 -9.6191,-0.48242 z m -112.8575,112.85742 a 112.85714,112.85714 0 0 0 0.4161,9.08008 112.85714,112.85714 0 0 1 -0.4161,-9.08008 z M 1761.3965,757.3457 a 112.85714,112.85714 0 0 1 5.2812,1.92774 112.85714,112.85714 0 0 0 -5.2812,-1.92774 z m 10.4375,4.23438 a 112.85714,112.85714 0 0 1 5.0801,2.45508 112.85714,112.85714 0 0 0 -5.0801,-2.45508 z m 43.1992,35.33398 a 112.85714,112.85714 0 0 1 3.2559,4.55274 112.85714,112.85714 0 0 0 -3.2559,-4.55274 z m -202.543,81.2793 a 112.85714,112.85714 0 0 0 0.8516,5.98438 112.85714,112.85714 0 0 1 -0.8516,-5.98438 z m 1.9473,10.875 a 112.85714,112.85714 0 0 0 1.5078,6.12891 112.85714,112.85714 0 0 1 -1.5078,-6.12891 z m 3.0156,10.66797 a 112.85714,112.85714 0 0 0 2.1875,6.16406 112.85714,112.85714 0 0 1 -2.1875,-6.16406 z m 213.2774,1.16602 a 112.85714,112.85714 0 0 1 -1.9258,5.27734 112.85714,112.85714 0 0 0 1.9258,-5.27734 z m -209.252,9.10546 a 112.85714,112.85714 0 0 0 2.9297,6.20118 112.85714,112.85714 0 0 1 -2.9297,-6.20118 z m 4.9961,9.80079 a 112.85714,112.85714 0 0 0 3.6895,6.14257 112.85714,112.85714 0 0 1 -3.6895,-6.14257 z m 5.9863,9.35546 a 112.85714,112.85714 0 0 0 4.4161,5.91602 112.85714,112.85714 0 0 1 -4.4161,-5.91602 z m 6.8692,8.70899 a 112.85714,112.85714 0 0 0 5.1211,5.5957 112.85714,112.85714 0 0 1 -5.1211,-5.5957 z m 7.7285,8.02344 a 112.85714,112.85714 0 0 0 5.7871,5.17578 112.85714,112.85714 0 0 1 -5.7871,-5.17578 z m 8.4512,7.19921 a 112.85714,112.85714 0 0 0 6.4297,4.68555 112.85714,112.85714 0 0 1 -6.4297,-4.68555 z m 9.1777,6.36915 a 112.85714,112.85714 0 0 0 6.9746,4.08398 112.85714,112.85714 0 0 1 -6.9746,-4.08398 z m 9.7441,5.42187 a 112.85714,112.85714 0 0 0 7.4864,3.42969 112.85714,112.85714 0 0 1 -7.4864,-3.42969 z m 10.2618,4.44336 a 112.85714,112.85714 0 0 0 7.875,2.69531 112.85714,112.85714 0 0 1 -7.875,-2.69531 z m 10.7031,3.41797 a 112.85714,112.85714 0 0 0 8.1719,1.9082 112.85714,112.85714 0 0 1 -8.1719,-1.9082 z m 10.9277,2.32422 a 112.85714,112.85714 0 0 0 8.416,1.09765 112.85714,112.85714 0 0 1 -8.416,-1.09765 z"
       id="circle4177"
       inkscape:connector-curvature="0" />
    <path
       style="opacity:1;fill:#91e8ff;fill-opacity:1;stroke:#7dccd6;stroke-width:2;stroke-miterlimit:4;stroke-dasharray:none;stroke-opacity:0"
       d="m 1204.2852,750.9336 a 112.85714,112.85714 0 0 0 -9.6191,0.48242 112.85714,112.85714 0 0 1 9.6191,-0.48242 z m 8.7383,0.4375 a 95.792664,112.93552 0 0 0 -87.3867,112.41992 95.792664,112.93552 0 0 0 87.627,112.45312 112.85714,112.85714 0 0 0 103.8789,-112.45312 112.85714,112.85714 0 0 0 -104.1172,-112.41992 z m 0.2403,224.87304 a 112.85714,112.85714 0 0 1 -8.9786,0.4043 112.85714,112.85714 0 0 0 8.9786,-0.4043 z M 1189.0645,752.0957 a 112.85714,112.85714 0 0 0 -5.5664,0.8418 112.85714,112.85714 0 0 1 5.5664,-0.8418 z m -11.0781,2.07813 a 112.85714,112.85714 0 0 0 -5.4551,1.39258 112.85714,112.85714 0 0 1 5.4551,-1.39258 z m -10.8125,3.17187 a 112.85714,112.85714 0 0 0 -5.2813,1.92774 112.85714,112.85714 0 0 1 5.2813,-1.92774 z m -10.4375,4.23438 a 112.85714,112.85714 0 0 0 -5.0801,2.45508 112.85714,112.85714 0 0 1 5.0801,-2.45508 z m -9.9473,5.24805 a 112.85714,112.85714 0 0 0 -4.8262,2.95898 112.85714,112.85714 0 0 1 4.8262,-2.95898 z m -9.416,6.24023 a 112.85714,112.85714 0 0 0 -4.4688,3.39844 112.85714,112.85714 0 0 1 4.4688,-3.39844 z m -8.7461,7.15625 a 112.85714,112.85714 0 0 0 -4.0801,3.80078 112.85714,112.85714 0 0 1 4.0801,-3.80078 z m -7.9707,7.97656 a 112.85714,112.85714 0 0 0 -3.6719,4.17969 112.85714,112.85714 0 0 1 3.6719,-4.17969 z m -7.1192,8.71289 a 112.85714,112.85714 0 0 0 -3.2558,4.55274 112.85714,112.85714 0 0 1 3.2558,-4.55274 z m -6.2148,9.38086 a 112.85714,112.85714 0 0 0 -2.791,4.86328 112.85714,112.85714 0 0 1 2.791,-4.86328 z m -5.2637,9.98243 a 112.85714,112.85714 0 0 0 -2.2812,5.10156 112.85714,112.85714 0 0 1 2.2812,-5.10156 z m -4.2246,10.42382 a 112.85714,112.85714 0 0 0 -1.7734,5.33594 112.85714,112.85714 0 0 1 1.7734,-5.33594 z m -3.166,10.79102 a 112.85714,112.85714 0 0 0 -1.2363,5.51172 112.85714,112.85714 0 0 1 1.2363,-5.51172 z m -2.0781,11.08203 a 112.85714,112.85714 0 0 0 -0.6797,5.5957 112.85714,112.85714 0 0 1 0.6797,-5.5957 z m -1.1621,15.2168 a 112.85714,112.85714 0 0 0 0.4824,9.61914 112.85714,112.85714 0 0 1 -0.4824,-9.61914 z m 1.1621,15.2207 a 112.85714,112.85714 0 0 0 0.8418,5.56641 112.85714,112.85714 0 0 1 -0.8418,-5.56641 z m 2.0781,11.07813 a 112.85714,112.85714 0 0 0 1.3926,5.45507 112.85714,112.85714 0 0 1 -1.3926,-5.45507 z m 3.1719,10.8125 a 112.85714,112.85714 0 0 0 1.9257,5.27734 112.85714,112.85714 0 0 1 -1.9257,-5.27734 z m 4.2519,10.47265 a 112.85714,112.85714 0 0 0 2.4278,5.02344 112.85714,112.85714 0 0 1 -2.4278,-5.02344 z m 5.2598,9.96094 a 112.85714,112.85714 0 0 0 2.9199,4.76172 112.85714,112.85714 0 0 1 -2.9199,-4.76172 z m 6.2227,9.38086 a 112.85714,112.85714 0 0 0 3.3886,4.45703 112.85714,112.85714 0 0 1 -3.3886,-4.45703 z m 7.125,8.71289 a 112.85714,112.85714 0 0 0 3.832,4.11133 112.85714,112.85714 0 0 1 -3.832,-4.11133 z m 7.9824,7.97851 a 112.85714,112.85714 0 0 0 4.1953,3.68555 112.85714,112.85714 0 0 1 -4.1953,-3.68555 z m 8.7461,7.14454 a 112.85714,112.85714 0 0 0 4.5215,3.23242 112.85714,112.85714 0 0 1 -4.5215,-3.23242 z m 9.3926,6.21875 a 112.85714,112.85714 0 0 0 4.8222,2.76757 112.85714,112.85714 0 0 1 -4.8222,-2.76757 z m 9.9785,5.25781 a 112.85714,112.85714 0 0 0 5.0664,2.26758 112.85714,112.85714 0 0 1 -5.0664,-2.26758 z m 10.4043,4.21484 a 112.85714,112.85714 0 0 0 5.3281,1.77149 112.85714,112.85714 0 0 1 -5.3281,-1.77149 z m 10.793,3.16602 a 112.85714,112.85714 0 0 0 5.498,1.23437 112.85714,112.85714 0 0 1 -5.498,-1.23437 z m 11.082,2.07812 a 112.85714,112.85714 0 0 0 5.584,0.67774 112.85714,112.85714 0 0 1 -5.584,-0.67774 z"
       id="circle4188"
       inkscape:connector-curvature="0" />
    <circle
       style="opacity:1;fill:#91e8ff;fill-opacity:1;stroke:#7dccd6;stroke-width:2;stroke-miterlimit:4;stroke-dasharray:none;stroke-opacity:0"
       id="path3336"
       cx="944.28571"
       cy="863.79077"
       r="112.85714" />
    <path
       inkscape:connector-curvature="0"
       id="path4175"
       d="m 1464.7519,750.93546 c -0.03,119.76788 -0.2365,191.94658 -0.4726,223.93748 -0.013,1.75205 -0.013,0.1748 -0.025,1.75205 a 112.85714,112.85714 0 0 0 0.031,0 112.85714,112.85714 0 0 0 112.8575,-112.85755 112.85714,112.85714 0 0 0 -112.3907,-112.83398 z"
       style="opacity:1;fill:#91e8ff;fill-opacity:1;stroke:#7dccd6;stroke-width:2;stroke-miterlimit:4;stroke-dasharray:none;stroke-opacity:0" />
    <circle
       style="opacity:0.7;fill:#6ecfff;fill-opacity:1;stroke:#7dccd6;stroke-width:2;stroke-miterlimit:4;stroke-dasharray:none;stroke-opacity:0"
       id="circle4179"
       cx="1224.2856"
       cy="583.79077"
       r="0" />
    <path
       inkscape:connector-curvature="0"
       id="path4204"
       d="M 164.2852,750.9336 A 112.85714,112.85714 0 0 1 277.1427,863.79102 112.85714,112.85714 0 0 0 173.0255,751.3711 l 0,0 a 95.792664,112.93552 0 0 0 -87.3867,112.41992 95.792664,112.93552 0 0 0 87.4004,112.41797 112.85714,112.85714 0 0 1 -8.752,0.43945 112.85714,112.85714 0 0 1 -9.623,-0.48242 112.85714,112.85714 0 0 1 -5.584,-0.67774 112.85714,112.85714 0 0 1 -5.584,-0.84375 112.85714,112.85714 0 0 1 -5.498,-1.23437 112.85714,112.85714 0 0 1 -5.4649,-1.39453 112.85714,112.85714 0 0 1 -1.0058,-0.33399 112.85714,112.85714 0 0 1 -4.3223,-1.4375 112.85714,112.85714 0 0 1 -5.3379,-1.94726 112.85714,112.85714 0 0 1 -5.0664,-2.26758 112.85714,112.85714 0 0 1 -5.1562,-2.49024 112.85714,112.85714 0 0 1 -1.6582,-0.95117 112.85714,112.85714 0 0 1 -3.1641,-1.8164 112.85714,112.85714 0 0 1 -4.8711,-2.98633 112.85714,112.85714 0 0 1 -1.4707,-1.05078 112.85714,112.85714 0 0 1 -7.6016,-5.64063 112.85714,112.85714 0 0 1 -4.1953,-3.68555 112.85714,112.85714 0 0 1 -4.1504,-3.86718 112.85714,112.85714 0 0 1 -2.6894,-2.88672 112.85714,112.85714 0 0 1 -4.878898,-5.48047 112.85714,112.85714 0 0 1 -3.3887,-4.45703 112.85714,112.85714 0 0 1 -3.3027,-4.61914 112.85714,112.85714 0 0 1 -1.6953,-2.76367 112.85714,112.85714 0 0 1 -4.0567,-6.93555 112.85714,112.85714 0 0 1 -8.458998,-20.85352 112.85714,112.85714 0 0 1 -0.7148,-2.80468 112.85714,112.85714 0 0 1 -0.6777,-2.65039 112.85714,112.85714 0 0 1 -1.2364,-5.51172 112.85714,112.85714 0 0 1 -0.8418,-5.56641 112.85714,112.85714 0 0 1 -0.6797,-5.60156 112.85714,112.85714 0 0 1 -0.4824,-9.61914 112.85714,112.85714 0 0 1 0.4824,-9.6211 112.85714,112.85714 0 0 1 0.6797,-5.5957 112.85714,112.85714 0 0 1 0.8418,-5.57031 112.85714,112.85714 0 0 1 1.2364,-5.51172 112.85714,112.85714 0 0 1 1.3925,-5.45508 112.85714,112.85714 0 0 1 0.6739,-2.02734 112.85714,112.85714 0 0 1 1.0996,-3.3086 112.85714,112.85714 0 0 1 1.9433,-5.32226 112.85714,112.85714 0 0 1 0.322298,-0.72071 112.85714,112.85714 0 0 1 7.2227,-14.36328 112.85714,112.85714 0 0 1 9.6621,-13.91406 112.85714,112.85714 0 0 1 3.671798,-4.17969 112.85714,112.85714 0 0 1 3.8907,-4.17578 112.85714,112.85714 0 0 1 4.08,-3.80078 112.85714,112.85714 0 0 1 4.2774,-3.75781 112.85714,112.85714 0 0 1 0.8828,-0.66992 112.85714,112.85714 0 0 1 8.1758,-6.00977 112.85714,112.85714 0 0 1 4.8262,-2.95898 112.85714,112.85714 0 0 1 25.7421,-11.26172 112.85714,112.85714 0 0 1 5.4551,-1.39258 112.85714,112.85714 0 0 1 5.5117,-1.23633 112.85714,112.85714 0 0 1 5.5391,-0.83789 112.85714,112.85714 0 0 1 5.6289,-0.68359 112.85714,112.85714 0 0 1 9.6191,-0.48242 z m 112.8575,112.85742 a 112.85714,112.85714 0 0 1 -0.4161,9.08008 112.85714,112.85714 0 0 0 0.4161,-9.08008 z M 127.1739,757.3457 a 112.85714,112.85714 0 0 0 -5.2812,1.92774 112.85714,112.85714 0 0 1 5.2812,-1.92774 z m -10.4375,4.23438 a 112.85714,112.85714 0 0 0 -5.0801,2.45508 112.85714,112.85714 0 0 1 5.0801,-2.45508 z m -43.199198,35.33398 a 112.85714,112.85714 0 0 0 -3.2559,4.55274 112.85714,112.85714 0 0 1 3.2559,-4.55274 z m 202.542998,81.2793 a 112.85714,112.85714 0 0 1 -0.8516,5.98438 112.85714,112.85714 0 0 0 0.8516,-5.98438 z m -1.9473,10.875 a 112.85714,112.85714 0 0 1 -1.5078,6.12891 112.85714,112.85714 0 0 0 1.5078,-6.12891 z m -3.0156,10.66797 a 112.85714,112.85714 0 0 1 -2.1875,6.16406 112.85714,112.85714 0 0 0 2.1875,-6.16406 z m -213.277396,1.16602 a 112.85714,112.85714 0 0 0 1.9258,5.27734 112.85714,112.85714 0 0 1 -1.9258,-5.27734 z m 209.251996,9.10546 a 112.85714,112.85714 0 0 1 -2.9297,6.20118 112.85714,112.85714 0 0 0 2.9297,-6.20118 z m -4.9961,9.80079 a 112.85714,112.85714 0 0 1 -3.6895,6.14257 112.85714,112.85714 0 0 0 3.6895,-6.14257 z m -5.9863,9.35546 a 112.85714,112.85714 0 0 1 -4.4161,5.91602 112.85714,112.85714 0 0 0 4.4161,-5.91602 z m -6.8692,8.70899 a 112.85714,112.85714 0 0 1 -5.1211,5.5957 112.85714,112.85714 0 0 0 5.1211,-5.5957 z m -7.7285,8.02344 a 112.85714,112.85714 0 0 1 -5.7871,5.17578 112.85714,112.85714 0 0 0 5.7871,-5.17578 z m -8.4512,7.19921 a 112.85714,112.85714 0 0 1 -6.4297,4.68555 112.85714,112.85714 0 0 0 6.4297,-4.68555 z m -9.1777,6.36915 a 112.85714,112.85714 0 0 1 -6.9746,4.08398 112.85714,112.85714 0 0 0 6.9746,-4.08398 z m -9.7441,5.42187 a 112.85714,112.85714 0 0 1 -7.4864,3.42969 112.85714,112.85714 0 0 0 7.4864,-3.42969 z m -10.2618,4.44336 a 112.85714,112.85714 0 0 1 -7.875,2.69531 112.85714,112.85714 0 0 0 7.875,-2.69531 z m -10.7031,3.41797 a 112.85714,112.85714 0 0 1 -8.1719,1.9082 112.85714,112.85714 0 0 0 8.1719,-1.9082 z m -10.9277,2.32422 a 112.85714,112.85714 0 0 1 -8.416,1.09765 112.85714,112.85714 0 0 0 8.416,-1.09765 z"
       style="opacity:1;fill:#91e8ff;fill-opacity:1;stroke:#7dccd6;stroke-width:2;stroke-miterlimit:4;stroke-dasharray:none;stroke-opacity:0" />
    <path
       inkscape:connector-curvature="0"
       id="path4206"
       d="m 684.28503,750.9336 a 112.85714,112.85714 0 0 1 9.6191,0.48242 112.85714,112.85714 0 0 0 -9.6191,-0.48242 z m -8.7383,0.4375 a 95.792664,112.93552 0 0 1 87.3867,112.41992 95.792664,112.93552 0 0 1 -87.6269,112.45312 A 112.85714,112.85714 0 0 1 571.42752,863.79102 112.85714,112.85714 0 0 1 675.54473,751.3711 Z m -0.2402,224.87304 a 112.85714,112.85714 0 0 0 8.9785,0.4043 112.85714,112.85714 0 0 1 -8.9785,-0.4043 z m 24.1992,-224.14844 a 112.85714,112.85714 0 0 1 5.5664,0.8418 112.85714,112.85714 0 0 0 -5.5664,-0.8418 z m 11.0781,2.07813 a 112.85714,112.85714 0 0 1 5.4551,1.39258 112.85714,112.85714 0 0 0 -5.4551,-1.39258 z m 10.8125,3.17187 a 112.85714,112.85714 0 0 1 5.2812,1.92774 112.85714,112.85714 0 0 0 -5.2812,-1.92774 z m 10.4375,4.23438 a 112.85714,112.85714 0 0 1 5.0801,2.45508 112.85714,112.85714 0 0 0 -5.0801,-2.45508 z m 9.9473,5.24805 a 112.85714,112.85714 0 0 1 4.8261,2.95898 112.85714,112.85714 0 0 0 -4.8261,-2.95898 z m 9.416,6.24023 a 112.85714,112.85714 0 0 1 4.4687,3.39844 112.85714,112.85714 0 0 0 -4.4687,-3.39844 z m 8.7461,7.15625 a 112.85714,112.85714 0 0 1 4.08,3.80078 112.85714,112.85714 0 0 0 -4.08,-3.80078 z m 7.9707,7.97656 a 112.85714,112.85714 0 0 1 3.6718,4.17969 112.85714,112.85714 0 0 0 -3.6718,-4.17969 z m 7.1191,8.71289 a 112.85714,112.85714 0 0 1 3.2559,4.55274 112.85714,112.85714 0 0 0 -3.2559,-4.55274 z m 6.2149,9.38086 a 112.85714,112.85714 0 0 1 2.791,4.86328 112.85714,112.85714 0 0 0 -2.791,-4.86328 z m 5.2636,9.98243 a 112.85714,112.85714 0 0 1 2.2813,5.10156 112.85714,112.85714 0 0 0 -2.2813,-5.10156 z m 4.2246,10.42382 a 112.85714,112.85714 0 0 1 1.7735,5.33594 112.85714,112.85714 0 0 0 -1.7735,-5.33594 z m 3.1661,10.79102 a 112.85714,112.85714 0 0 1 1.2363,5.51172 112.85714,112.85714 0 0 0 -1.2363,-5.51172 z m 2.0781,11.08203 a 112.85714,112.85714 0 0 1 0.6797,5.5957 112.85714,112.85714 0 0 0 -0.6797,-5.5957 z m 1.1621,15.2168 a 112.85714,112.85714 0 0 1 -0.4824,9.61914 112.85714,112.85714 0 0 0 0.4824,-9.61914 z m -1.1621,15.2207 a 112.85714,112.85714 0 0 1 -0.8418,5.56641 112.85714,112.85714 0 0 0 0.8418,-5.56641 z m -2.0781,11.07813 a 112.85714,112.85714 0 0 1 -1.3926,5.45507 112.85714,112.85714 0 0 0 1.3926,-5.45507 z m -3.1719,10.8125 a 112.85714,112.85714 0 0 1 -1.9258,5.27734 112.85714,112.85714 0 0 0 1.9258,-5.27734 z m -4.252,10.47265 a 112.85714,112.85714 0 0 1 -2.4277,5.02344 112.85714,112.85714 0 0 0 2.4277,-5.02344 z m -5.2597,9.96094 a 112.85714,112.85714 0 0 1 -2.92,4.76172 112.85714,112.85714 0 0 0 2.92,-4.76172 z m -6.2227,9.38086 a 112.85714,112.85714 0 0 1 -3.3887,4.45703 112.85714,112.85714 0 0 0 3.3887,-4.45703 z m -7.125,8.71289 a 112.85714,112.85714 0 0 1 -3.832,4.11133 112.85714,112.85714 0 0 0 3.832,-4.11133 z m -7.9824,7.97851 a 112.85714,112.85714 0 0 1 -4.1953,3.68555 112.85714,112.85714 0 0 0 4.1953,-3.68555 z m -8.7461,7.14454 a 112.85714,112.85714 0 0 1 -4.5215,3.23242 112.85714,112.85714 0 0 0 4.5215,-3.23242 z m -9.3926,6.21875 a 112.85714,112.85714 0 0 1 -4.8223,2.76757 112.85714,112.85714 0 0 0 4.8223,-2.76757 z m -9.9785,5.25781 a 112.85714,112.85714 0 0 1 -5.0664,2.26758 112.85714,112.85714 0 0 0 5.0664,-2.26758 z m -10.4043,4.21484 a 112.85714,112.85714 0 0 1 -5.3281,1.77149 112.85714,112.85714 0 0 0 5.3281,-1.77149 z m -10.793,3.16602 a 112.85714,112.85714 0 0 1 -5.498,1.23437 112.85714,112.85714 0 0 0 5.498,-1.23437 z m -11.082,2.07812 a 112.85714,112.85714 0 0 1 -5.584,0.67774 112.85714,112.85714 0 0 0 5.584,-0.67774 z"
       style="opacity:1;fill:#91e8ff;fill-opacity:1;stroke:#7dccd6;stroke-width:2;stroke-miterlimit:4;stroke-dasharray:none;stroke-opacity:0" />
    <path
       style="opacity:1;fill:#91e8ff;fill-opacity:1;stroke:#7dccd6;stroke-width:2;stroke-miterlimit:4;stroke-dasharray:none;stroke-opacity:0"
       d="m 423.81845,750.93546 c 0.03,119.76788 0.2365,191.94658 0.4726,223.93748 0.013,1.75205 0.013,0.1748 0.025,1.75205 a 112.85714,112.85714 0 0 1 -0.031,0 A 112.85714,112.85714 0 0 1 311.4276,863.76744 112.85714,112.85714 0 0 1 423.81825,750.93346 Z"
       id="path4212"
       inkscape:connector-curvature="0" />
  </g>
</svg>
