<?xml version="1.0" encoding="UTF-8" standalone="no"?>
<!-- Created with Inkscape (http://www.inkscape.org/) -->

<svg
   xmlns:dc="http://purl.org/dc/elements/1.1/"
   xmlns:cc="http://creativecommons.org/ns#"
   xmlns:rdf="http://www.w3.org/1999/02/22-rdf-syntax-ns#"
   xmlns:svg="http://www.w3.org/2000/svg"
   xmlns="http://www.w3.org/2000/svg"
   xmlns:sodipodi="http://sodipodi.sourceforge.net/DTD/sodipodi-0.dtd"
   xmlns:inkscape="http://www.inkscape.org/namespaces/inkscape"
   width="534mm"
   height="109mm"
   viewBox="0 0 1892.1243 386.22025"
   id="svg2"
   version="1.1"
   inkscape:version="0.91 r13725"
   sodipodi:docname="moon.svg">
  <defs
     id="defs4" />
  <sodipodi:namedview
     id="base"
     pagecolor="#ffffff"
     bordercolor="#666666"
     borderopacity="1.0"
     inkscape:pageopacity="0"
     inkscape:pageshadow="2"
     inkscape:zoom="0.12374369"
     inkscape:cx="956.92084"
     inkscape:cy="-195.39612"
     inkscape:document-units="px"
     inkscape:current-layer="layer1"
     showgrid="false"
     width="298mm"
     inkscape:window-width="1280"
     inkscape:window-height="751"
     inkscape:window-x="0"
     inkscape:window-y="1"
     inkscape:window-maximized="1" />
  <metadata
     id="metadata7">
    <rdf:RDF>
      <cc:Work
         rdf:about="">
        <dc:format>image/svg+xml</dc:format>
        <dc:type
           rdf:resource="http://purl.org/dc/dcmitype/StillImage" />
        <dc:title></dc:title>
      </cc:Work>
    </rdf:RDF>
  </metadata>
  <g
     inkscape:label="Layer 1"
     inkscape:groupmode="layer"
     id="layer1"
     transform="translate(0,-666.14184)">
    <circle
       r="112.85714"
       cy="863.79077"
       cx="-164.28482"
       id="circle4218"
       style="opacity:1;fill:#91e9ff;fill-opacity:1;stroke:#7dccd6;stroke-width:2;stroke-miterlimit:4;stroke-dasharray:none;stroke-opacity:0"
       transform="scale(-1,1)" />
    <path
       id="path4220"
       d="m 164.2852,750.93373 a 112.85714,112.85714 0 0 0 -9.6192,0.4824 112.85714,112.85714 0 0 1 9.6192,-0.4824 z m 8.7382,0.4375 A 95.792664,112.93552 0 0 0 85.636702,863.79117 95.792664,112.93552 0 0 0 173.2637,976.24422 112.85714,112.85714 0 0 0 277.1426,863.79117 112.85714,112.85714 0 0 0 173.0254,751.37123 Z m 0.2403,224.87299 a 112.85714,112.85714 0 0 1 -8.9785,0.4043 112.85714,112.85714 0 0 0 8.9785,-0.4043 z M 149.0644,752.09583 a 112.85714,112.85714 0 0 0 -5.5664,0.8418 112.85714,112.85714 0 0 1 5.5664,-0.8418 z m -11.0781,2.0781 a 112.85714,112.85714 0 0 0 -5.4551,1.3926 112.85714,112.85714 0 0 1 5.4551,-1.3926 z m -10.8125,3.1719 a 112.85714,112.85714 0 0 0 -5.2812,1.9277 112.85714,112.85714 0 0 1 5.2812,-1.9277 z m -10.4375,4.23439 a 112.85714,112.85714 0 0 0 -5.08,2.4551 112.85714,112.85714 0 0 1 5.08,-2.4551 z m -9.9472,5.248 a 112.85714,112.85714 0 0 0 -4.8262,2.959 112.85714,112.85714 0 0 1 4.8262,-2.959 z m -9.415998,6.2403 a 112.85714,112.85714 0 0 0 -4.4688,3.3984 112.85714,112.85714 0 0 1 4.4688,-3.3984 z m -8.7461,7.15619 a 112.85714,112.85714 0 0 0 -4.0801,3.8008 112.85714,112.85714 0 0 1 4.0801,-3.8008 z m -7.9707,7.9766 a 112.85714,112.85714 0 0 0 -3.6719,4.1797 112.85714,112.85714 0 0 1 3.6719,-4.1797 z m -7.1192,8.7129 a 112.85714,112.85714 0 0 0 -3.2559,4.55269 112.85714,112.85714 0 0 1 3.2559,-4.55269 z m -6.2148,9.38079 a 112.85714,112.85714 0 0 0 -2.7911,4.8633 112.85714,112.85714 0 0 1 2.7911,-4.8633 z m -5.2637,9.9825 a 112.85714,112.85714 0 0 0 -2.281298,5.10149 112.85714,112.85714 0 0 1 2.281298,-5.10149 z m -4.224598,10.42379 a 112.85714,112.85714 0 0 0 -1.7734,5.3359 112.85714,112.85714 0 0 1 1.7734,-5.3359 z m -3.166,10.791 a 112.85714,112.85714 0 0 0 -1.2364,5.51179 112.85714,112.85714 0 0 1 1.2364,-5.51179 z m -2.0782,11.08209 a 112.85714,112.85714 0 0 0 -0.6796,5.5957 112.85714,112.85714 0 0 1 0.6796,-5.5957 z m -1.1621,15.21679 a 112.85714,112.85714 0 0 0 0.4825,9.6191 112.85714,112.85714 0 0 1 -0.4825,-9.6191 z m 1.1621,15.2207 a 112.85714,112.85714 0 0 0 0.8418,5.56639 112.85714,112.85714 0 0 1 -0.8418,-5.56639 z m 2.0782,11.07809 a 112.85714,112.85714 0 0 0 1.3926,5.4551 112.85714,112.85714 0 0 1 -1.3926,-5.4551 z m 3.1718,10.81249 a 112.85714,112.85714 0 0 0 1.9258,5.2774 112.85714,112.85714 0 0 1 -1.9258,-5.2774 z m 4.251998,10.4727 a 112.85714,112.85714 0 0 0 2.4277,5.0234 112.85714,112.85714 0 0 1 -2.4277,-5.0234 z m 5.2598,9.96089 a 112.85714,112.85714 0 0 0 2.9199,4.7617 112.85714,112.85714 0 0 1 -2.9199,-4.7617 z m 6.2226,9.3809 a 112.85714,112.85714 0 0 0 3.3887,4.457 112.85714,112.85714 0 0 1 -3.3887,-4.457 z m 7.125,8.7129 a 112.85714,112.85714 0 0 0 3.8321,4.11129 112.85714,112.85714 0 0 1 -3.8321,-4.11129 z m 7.9824,7.97849 a 112.85714,112.85714 0 0 0 4.1954,3.6855 112.85714,112.85714 0 0 1 -4.1954,-3.6855 z m 8.7461,7.1445 a 112.85714,112.85714 0 0 0 4.521498,3.2325 112.85714,112.85714 0 0 1 -4.521498,-3.2325 z m 9.392598,6.21879 a 112.85714,112.85714 0 0 0 4.8223,2.7676 112.85714,112.85714 0 0 1 -4.8223,-2.7676 z m 9.9785,5.2578 a 112.85714,112.85714 0 0 0 5.0664,2.2676 112.85714,112.85714 0 0 1 -5.0664,-2.2676 z m 10.4043,4.2148 a 112.85714,112.85714 0 0 0 5.3281,1.7715 112.85714,112.85714 0 0 1 -5.3281,-1.7715 z m 10.793,3.1661 a 112.85714,112.85714 0 0 0 5.498,1.2343 112.85714,112.85714 0 0 1 -5.498,-1.2343 z m 11.082,2.0781 a 112.85714,112.85714 0 0 0 5.584,0.6777 112.85714,112.85714 0 0 1 -5.584,-0.6777 z"
       style="opacity:1;fill:#0091b5;fill-opacity:1;stroke:#7dccd6;stroke-width:2;stroke-miterlimit:4;stroke-dasharray:none;stroke-opacity:0"
       inkscape:connector-curvature="0" />
    <circle
       r="112.85714"
       cy="863.79077"
       cx="1464.2856"
       id="circle4173"
       style="opacity:1;fill:#91e9ff;fill-opacity:1;stroke:#7dccd6;stroke-width:2;stroke-miterlimit:4;stroke-dasharray:none;stroke-opacity:0" />
    <circle
       r="112.85714"
       cy="863.79077"
       cx="944.28564"
       id="circle4158"
       style="opacity:1;fill:#91e9ff;fill-opacity:1;stroke:#7dccd6;stroke-width:2;stroke-miterlimit:4;stroke-dasharray:none;stroke-opacity:0" />
    <path
       style="opacity:1;fill:#0091b5;fill-opacity:1;stroke:#7dccd6;stroke-width:2;stroke-miterlimit:4;stroke-dasharray:none;stroke-opacity:0"
       d="m 1463.8194,976.62312 c 0.03,-119.76794 0.2365,-191.94661 0.4726,-223.93749 0.013,-1.752 0.013,-0.1748 0.025,-1.752 a 112.85714,112.85714 0 0 0 -0.031,0 112.85714,112.85714 0 0 0 -112.8575,112.85744 112.85714,112.85714 0 0 0 112.3907,112.83405 z"
       id="circle4160"
       inkscape:connector-curvature="0" />
    <circle
       style="opacity:0.7;fill:#6ecfff;fill-opacity:1;stroke:#7dccd6;stroke-width:2;stroke-miterlimit:4;stroke-dasharray:none;stroke-opacity:0"
       id="circle4179"
       cx="1224.2856"
       cy="583.79077"
       r="0" />
    <circle
       style="opacity:1;fill:#91e9ff;fill-opacity:1;stroke:#7dccd6;stroke-width:2;stroke-miterlimit:4;stroke-dasharray:none;stroke-opacity:0"
       id="circle4190"
       cx="1204.2856"
       cy="863.79077"
       r="112.85714" />
    <path
       id="path4192"
       d="m 1204.2858,750.93373 a 112.85714,112.85714 0 0 0 -112.8575,112.85744 112.85714,112.85714 0 0 0 112.8575,112.85735 112.85714,112.85714 0 0 0 8.9785,-0.4043 95.792664,112.93552 0 0 1 -87.627,-112.45305 95.792664,112.93552 0 0 1 87.3887,-112.41994 112.85714,112.85714 0 0 0 -8.7402,-0.4375 z"
       style="opacity:1;fill:#0091b5;fill-opacity:1;stroke:#7dccd6;stroke-width:2;stroke-miterlimit:4;stroke-dasharray:none;stroke-opacity:0"
       inkscape:connector-curvature="0" />
    <circle
       style="opacity:1;fill:#91e9ff;fill-opacity:1;stroke:#7dccd6;stroke-width:2;stroke-miterlimit:4;stroke-dasharray:none;stroke-opacity:0"
       id="circle4197"
       cx="1724.2855"
       cy="863.79077"
       r="112.85714" />
    <path
       inkscape:connector-curvature="0"
       style="opacity:1;fill:#0091b5;fill-opacity:1;stroke:#7dccd6;stroke-width:2;stroke-miterlimit:4;stroke-dasharray:none;stroke-opacity:0"
       d="m 1724.2852,750.93373 a 112.85714,112.85714 0 0 1 9.6192,0.4824 112.85714,112.85714 0 0 0 -9.6192,-0.4824 z m -8.7382,0.4375 a 95.792664,112.93552 0 0 1 87.3867,112.41994 95.792664,112.93552 0 0 1 -87.627,112.45305 112.85714,112.85714 0 0 1 -103.8789,-112.45305 112.85714,112.85714 0 0 1 104.1172,-112.41994 z m -0.2403,224.87299 a 112.85714,112.85714 0 0 0 8.9785,0.4043 112.85714,112.85714 0 0 1 -8.9785,-0.4043 z m 24.1993,-224.14839 a 112.85714,112.85714 0 0 1 5.5664,0.8418 112.85714,112.85714 0 0 0 -5.5664,-0.8418 z m 11.0781,2.0781 a 112.85714,112.85714 0 0 1 5.4551,1.3926 112.85714,112.85714 0 0 0 -5.4551,-1.3926 z m 10.8125,3.1719 a 112.85714,112.85714 0 0 1 5.2812,1.9277 112.85714,112.85714 0 0 0 -5.2812,-1.9277 z m 10.4375,4.23439 a 112.85714,112.85714 0 0 1 5.08,2.4551 112.85714,112.85714 0 0 0 -5.08,-2.4551 z m 9.9472,5.248 a 112.85714,112.85714 0 0 1 4.8262,2.959 112.85714,112.85714 0 0 0 -4.8262,-2.959 z m 9.416,6.2403 a 112.85714,112.85714 0 0 1 4.4688,3.3984 112.85714,112.85714 0 0 0 -4.4688,-3.3984 z m 8.7461,7.15619 a 112.85714,112.85714 0 0 1 4.0801,3.8008 112.85714,112.85714 0 0 0 -4.0801,-3.8008 z m 7.9707,7.9766 a 112.85714,112.85714 0 0 1 3.6719,4.1797 112.85714,112.85714 0 0 0 -3.6719,-4.1797 z m 7.1192,8.7129 a 112.85714,112.85714 0 0 1 3.2559,4.55269 112.85714,112.85714 0 0 0 -3.2559,-4.55269 z m 6.2148,9.38079 a 112.85714,112.85714 0 0 1 2.7911,4.8633 112.85714,112.85714 0 0 0 -2.7911,-4.8633 z m 5.2637,9.9825 a 112.85714,112.85714 0 0 1 2.2813,5.10149 112.85714,112.85714 0 0 0 -2.2813,-5.10149 z m 4.2246,10.42379 a 112.85714,112.85714 0 0 1 1.7734,5.3359 112.85714,112.85714 0 0 0 -1.7734,-5.3359 z m 3.166,10.791 a 112.85714,112.85714 0 0 1 1.2364,5.51179 112.85714,112.85714 0 0 0 -1.2364,-5.51179 z m 2.0782,11.08209 a 112.85714,112.85714 0 0 1 0.6796,5.5957 112.85714,112.85714 0 0 0 -0.6796,-5.5957 z m 1.1621,15.21679 a 112.85714,112.85714 0 0 1 -0.4825,9.6191 112.85714,112.85714 0 0 0 0.4825,-9.6191 z m -1.1621,15.2207 a 112.85714,112.85714 0 0 1 -0.8418,5.56639 112.85714,112.85714 0 0 0 0.8418,-5.56639 z m -2.0782,11.07809 a 112.85714,112.85714 0 0 1 -1.3926,5.4551 112.85714,112.85714 0 0 0 1.3926,-5.4551 z m -3.1718,10.81249 a 112.85714,112.85714 0 0 1 -1.9258,5.2774 112.85714,112.85714 0 0 0 1.9258,-5.2774 z m -4.252,10.4727 a 112.85714,112.85714 0 0 1 -2.4277,5.0234 112.85714,112.85714 0 0 0 2.4277,-5.0234 z m -5.2598,9.96089 a 112.85714,112.85714 0 0 1 -2.9199,4.7617 112.85714,112.85714 0 0 0 2.9199,-4.7617 z m -6.2226,9.3809 a 112.85714,112.85714 0 0 1 -3.3887,4.457 112.85714,112.85714 0 0 0 3.3887,-4.457 z m -7.125,8.7129 a 112.85714,112.85714 0 0 1 -3.8321,4.11129 112.85714,112.85714 0 0 0 3.8321,-4.11129 z m -7.9824,7.97849 a 112.85714,112.85714 0 0 1 -4.1954,3.6855 112.85714,112.85714 0 0 0 4.1954,-3.6855 z m -8.7461,7.1445 a 112.85714,112.85714 0 0 1 -4.5215,3.2325 112.85714,112.85714 0 0 0 4.5215,-3.2325 z m -9.3926,6.21879 a 112.85714,112.85714 0 0 1 -4.8223,2.7676 112.85714,112.85714 0 0 0 4.8223,-2.7676 z m -9.9785,5.2578 a 112.85714,112.85714 0 0 1 -5.0664,2.2676 112.85714,112.85714 0 0 0 5.0664,-2.2676 z m -10.4043,4.2148 a 112.85714,112.85714 0 0 1 -5.3281,1.7715 112.85714,112.85714 0 0 0 5.3281,-1.7715 z m -10.793,3.1661 a 112.85714,112.85714 0 0 1 -5.498,1.2343 112.85714,112.85714 0 0 0 5.498,-1.2343 z m -11.082,2.0781 a 112.85714,112.85714 0 0 1 -5.584,0.6777 112.85714,112.85714 0 0 0 5.584,-0.6777 z"
       id="path4199" />
    <circle
       style="opacity:1;fill:#91e9ff;fill-opacity:1;stroke:#7dccd6;stroke-width:2;stroke-miterlimit:4;stroke-dasharray:none;stroke-opacity:0"
       id="circle4208"
       cx="-424.28473"
       cy="863.79077"
       r="112.85714"
       transform="scale(-1,1)" />
    <path
       inkscape:connector-curvature="0"
       id="path4210"
       d="m 424.75094,976.62312 c -0.03,-119.76794 -0.2365,-191.94661 -0.4726,-223.93749 -0.013,-1.752 -0.013,-0.1748 -0.025,-1.752 a 112.85714,112.85714 0 0 1 0.031,0 112.85714,112.85714 0 0 1 112.85748,112.85744 112.85714,112.85714 0 0 1 -112.39068,112.83405 z"
       style="opacity:1;fill:#0091b5;fill-opacity:1;stroke:#7dccd6;stroke-width:2;stroke-miterlimit:4;stroke-dasharray:none;stroke-opacity:0" />
    <circle
       r="112.85714"
       cy="863.79077"
       cx="-684.28473"
       id="circle4214"
       style="opacity:1;fill:#91e9ff;fill-opacity:1;stroke:#7dccd6;stroke-width:2;stroke-miterlimit:4;stroke-dasharray:none;stroke-opacity:0"
       transform="scale(-1,1)" />
    <path
       inkscape:connector-curvature="0"
       style="opacity:1;fill:#0091b5;fill-opacity:1;stroke:#7dccd6;stroke-width:2;stroke-miterlimit:4;stroke-dasharray:none;stroke-opacity:0"
       d="m 684.28443,750.93373 a 112.85714,112.85714 0 0 1 112.8574,112.85744 112.85714,112.85714 0 0 1 -112.8574,112.85735 112.85714,112.85714 0 0 1 -8.9785,-0.4043 95.792664,112.93552 0 0 0 87.6269,-112.45305 95.792664,112.93552 0 0 0 -87.3886,-112.41994 112.85714,112.85714 0 0 1 8.7402,-0.4375 z"
       id="path4216" />
  </g>
</svg>
